<svg width="135" height="135" viewBox="0 0 135 135" fill="none" xmlns="http://www.w3.org/2000/svg">
<rect x="0.285156" width="134.378" height="134.378" rx="30" fill="#212261"/>
<rect x="27.625" y="40.7773" width="80.1634" height="57.9216" rx="6" fill="#F6F7FA" fill-opacity="0.12"/>
<path d="M27.625 46.7773C27.625 43.4636 30.3113 40.7773 33.625 40.7773H101.788C105.102 40.7773 107.788 43.4636 107.788 46.7773V51.4349H27.625V46.7773Z" fill="#F6F7FA" fill-opacity="0.12"/>
<rect x="37.8203" y="57.9219" width="9.26745" height="6.02384" fill="#F6F7FA" fill-opacity="0.12"/>
<rect x="62.8398" y="57.9219" width="9.26745" height="6.02384" fill="#F6F7FA" fill-opacity="0.12"/>
<rect x="50.3281" y="57.9219" width="9.26745" height="6.02384" fill="#F6F7FA" fill-opacity="0.12"/>
<rect x="75.3516" y="57.9219" width="9.26745" height="6.02384" fill="#F6F7FA" fill-opacity="0.12"/>
<rect x="87.8633" y="57.9219" width="9.26745" height="6.02384" fill="#F6F7FA" fill-opacity="0.12"/>
<rect x="37.8203" y="66.7266" width="9.26745" height="6.02384" fill="#F6F7FA" fill-opacity="0.12"/>
<rect x="62.8398" y="66.7266" width="9.26745" height="6.02384" fill="#FF6B00"/>
<rect x="50.3281" y="66.7266" width="9.26745" height="6.02384" fill="#F6F7FA" fill-opacity="0.12"/>
<rect x="75.3516" y="66.7266" width="9.26745" height="6.02384" fill="#F6F7FA" fill-opacity="0.12"/>
<rect x="87.8633" y="66.7266" width="9.26745" height="6.02384" fill="#F6F7FA" fill-opacity="0.12"/>
<rect x="37.8203" y="75.5293" width="9.26745" height="6.02384" fill="#F6F7FA" fill-opacity="0.12"/>
<rect x="62.8398" y="75.5293" width="9.26745" height="6.02384" fill="#F6F7FA" fill-opacity="0.12"/>
<rect x="50.3281" y="75.5293" width="9.26745" height="6.02384" fill="#F6F7FA" fill-opacity="0.12"/>
<rect x="75.3516" y="75.5293" width="9.26745" height="6.02384" fill="#F6F7FA" fill-opacity="0.12"/>
<rect x="87.8633" y="75.5293" width="9.26745" height="6.02384" fill="#F6F7FA" fill-opacity="0.12"/>
<rect x="37.8203" y="84.334" width="9.26745" height="6.02384" fill="#F6F7FA" fill-opacity="0.12"/>
<rect x="62.8398" y="84.334" width="9.26745" height="6.02384" fill="#F6F7FA" fill-opacity="0.12"/>
<rect x="50.3281" y="84.334" width="9.26745" height="6.02384" fill="#F6F7FA" fill-opacity="0.12"/>
<rect x="75.3516" y="84.334" width="9.26745" height="6.02384" fill="#F6F7FA" fill-opacity="0.12"/>
<rect x="87.8633" y="84.334" width="9.26745" height="6.02384" fill="#F6F7FA" fill-opacity="0.12"/>
<circle cx="105.76" cy="88.677" r="7.75755" transform="rotate(10.8018 105.76 88.677)" stroke="white" stroke-width="4"/>
<rect x="37.8203" y="34.2891" width="6.02384" height="12.9744" rx="3.01192" fill="#F6F7FA" fill-opacity="0.15"/>
<rect x="91.1133" y="34.2891" width="6.02384" height="12.9744" rx="3.01192" fill="#F6F7FA" fill-opacity="0.15"/>
<path d="M102.227 86.4181L106.477 91.0519L115.201 81.5527" stroke="#FF7A00" stroke-width="5" stroke-linecap="round"/>
</svg>
