<svg width="135" height="135" viewBox="0 0 135 135" fill="none" xmlns="http://www.w3.org/2000/svg">
<rect x="0.625" width="134.378" height="134.378" rx="30" fill="#212261"/>
<rect x="27.9648" y="40.7773" width="80.1634" height="57.9216" rx="6" fill="#F6F7FA" fill-opacity="0.12"/>
<path d="M27.9648 46.7773C27.9648 43.4636 30.6511 40.7773 33.9648 40.7773H102.128C105.442 40.7773 108.128 43.4636 108.128 46.7773V51.4349H27.9648V46.7773Z" fill="#F6F7FA" fill-opacity="0.12"/>
<rect x="38.1602" y="57.9219" width="9.26745" height="6.02384" fill="#F6F7FA" fill-opacity="0.12"/>
<rect x="63.1797" y="57.9219" width="9.26745" height="6.02384" fill="#F6F7FA" fill-opacity="0.12"/>
<rect x="50.668" y="57.9219" width="9.26745" height="6.02384" fill="#F6F7FA" fill-opacity="0.12"/>
<rect x="75.6914" y="57.9219" width="9.26745" height="6.02384" fill="#F6F7FA" fill-opacity="0.12"/>
<rect x="88.2031" y="57.9219" width="9.26745" height="6.02384" fill="#F6F7FA" fill-opacity="0.12"/>
<rect x="38.1602" y="66.7266" width="9.26745" height="6.02384" fill="#F6F7FA" fill-opacity="0.12"/>
<rect x="63.1797" y="66.7266" width="9.26745" height="6.02384" fill="#FF6B00"/>
<rect x="50.668" y="66.7266" width="9.26745" height="6.02384" fill="#F6F7FA" fill-opacity="0.12"/>
<rect x="75.6914" y="66.7266" width="9.26745" height="6.02384" fill="#F6F7FA" fill-opacity="0.12"/>
<rect x="88.2031" y="66.7266" width="9.26745" height="6.02384" fill="#F6F7FA" fill-opacity="0.12"/>
<rect x="38.1602" y="75.5293" width="9.26745" height="6.02384" fill="#F6F7FA" fill-opacity="0.12"/>
<rect x="63.1797" y="75.5293" width="9.26745" height="6.02384" fill="#F6F7FA" fill-opacity="0.12"/>
<rect x="50.668" y="75.5293" width="9.26745" height="6.02384" fill="#F6F7FA" fill-opacity="0.12"/>
<rect x="75.6914" y="75.5293" width="9.26745" height="6.02384" fill="#F6F7FA" fill-opacity="0.12"/>
<rect x="88.2031" y="75.5293" width="9.26745" height="6.02384" fill="#F6F7FA" fill-opacity="0.12"/>
<rect x="38.1602" y="84.334" width="9.26745" height="6.02384" fill="#F6F7FA" fill-opacity="0.12"/>
<rect x="63.1797" y="84.334" width="9.26745" height="6.02384" fill="#F6F7FA" fill-opacity="0.12"/>
<rect x="50.668" y="84.334" width="9.26745" height="6.02384" fill="#F6F7FA" fill-opacity="0.12"/>
<rect x="75.6914" y="84.334" width="9.26745" height="6.02384" fill="#F6F7FA" fill-opacity="0.12"/>
<rect x="88.2031" y="84.334" width="9.26745" height="6.02384" fill="#F6F7FA" fill-opacity="0.12"/>
<circle cx="106.1" cy="88.677" r="7.75755" transform="rotate(10.8018 106.1 88.677)" stroke="white" stroke-width="4"/>
<rect x="38.1602" y="34.2891" width="6.02384" height="12.9744" rx="3.01192" fill="#F6F7FA" fill-opacity="0.15"/>
<rect x="91.4531" y="34.2891" width="6.02384" height="12.9744" rx="3.01192" fill="#F6F7FA" fill-opacity="0.15"/>
<path d="M102.566 86.4181L106.817 91.0519L115.541 81.5527" stroke="#FF7A00" stroke-width="5" stroke-linecap="round"/>
</svg>
