<svg width="20" height="20" viewBox="0 0 20 20" fill="none" xmlns="http://www.w3.org/2000/svg">
<g clip-path="url(#clip0_6699_6675)">
<path d="M17.6577 15.7909H19.2524V11.7267L16.7475 6.44531H12.0024V11.7267H0.695312V15.7909H2.29348" stroke="#393939" stroke-linecap="round" stroke-linejoin="round"/>
<path d="M4.48736 18.0281C5.69929 18.0281 6.68175 17.0267 6.68175 15.7914C6.68175 14.5561 5.69929 13.5547 4.48736 13.5547C3.27543 13.5547 2.29297 14.5561 2.29297 15.7914C2.29297 17.0267 3.27543 18.0281 4.48736 18.0281Z" stroke="#393939" stroke-miterlimit="10"/>
<path d="M15.2627 18.0281C16.4747 18.0281 17.4571 17.0267 17.4571 15.7914C17.4571 14.5561 16.4747 13.5547 15.2627 13.5547C14.0508 13.5547 13.0684 14.5561 13.0684 15.7914C13.0684 17.0267 14.0508 18.0281 15.2627 18.0281Z" stroke="#393939" stroke-miterlimit="10"/>
<path d="M6.64258 15.791H13.2646" stroke="#393939" stroke-miterlimit="10"/>
<path d="M10.1254 1.97559H0.656357C0.516069 1.97559 0.402344 2.08931 0.402344 2.2296V9.84999C0.402344 9.99028 0.516069 10.104 0.656357 10.104H10.1254C10.2657 10.104 10.3794 9.99028 10.3794 9.84999V2.2296C10.3794 2.08931 10.2657 1.97559 10.1254 1.97559Z" fill="#393939"/>
<path d="M3.50391 6.03613H6.62968" stroke="white" stroke-miterlimit="10" stroke-linecap="round"/>
<path d="M6.03604 4.74121L7.28141 6.00775L6.00781 7.30604" stroke="white" stroke-linecap="round" stroke-linejoin="round"/>
</g>
<defs>
<clipPath id="clip0_6699_6675">
<rect width="20" height="20" fill="white"/>
</clipPath>
</defs>
</svg>
