<svg width="135" height="136" viewBox="0 0 135 136" fill="none" xmlns="http://www.w3.org/2000/svg">
<rect x="0.53125" y="0.925781" width="134.378" height="134.378" rx="30" fill="#212261"/>
<path d="M33.4297 46.3125C33.4297 42.9988 36.116 40.3125 39.4297 40.3125H96.4722C99.7859 40.3125 102.472 42.9988 102.472 46.3125V79.2596C102.472 82.5733 99.7859 85.2596 96.4722 85.2596H39.4297C36.116 85.2596 33.4297 82.5733 33.4297 79.2596V46.3125Z" fill="#F6F7FA" fill-opacity="0.12"/>
<rect x="42.7031" y="49.3008" width="50.596" height="4.63372" rx="2" fill="#F6F7FA" fill-opacity="0.15"/>
<rect x="42.7031" y="65.9824" width="35.3118" height="4.63372" rx="2" fill="#F6F7FA" fill-opacity="0.15"/>
<rect x="42.7031" y="57.6426" width="42.1634" height="4.63372" rx="2" fill="#F6F7FA" fill-opacity="0.15"/>
<path d="M102.473 79.2598C102.473 82.5735 99.7864 85.2598 96.4727 85.2598L39.4302 85.2598C36.1165 85.2598 33.4302 82.5735 33.4302 79.2598L33.4302 78.3092L102.473 78.3092L102.473 79.2598Z" fill="#F6F7FA" fill-opacity="0.12"/>
<rect x="51.5" y="97.3066" width="32.4361" height="3.70698" rx="1.85349" fill="#F6F7FA" fill-opacity="0.12"/>
<path d="M61.6933 87.5762H74.2044L76.0579 94.9901H59.8398L61.6933 87.5762Z" fill="#F6F7FA" fill-opacity="0.12"/>
<path d="M37.784 46.0879H32.154C33.0923 50.579 30.2773 52.8246 30.2773 52.8246C32.7796 52.8246 37.4712 52.183 37.784 46.0879Z" fill="white"/>
<rect x="22.7695" y="31.9727" width="23.771" height="17.323" rx="7" fill="white"/>
<rect x="26.9453" y="36.1426" width="13.0324" height="1.85349" rx="0.926745" fill="#FF7A00"/>
<rect x="26.9453" y="39.791" width="15.1175" height="1.85349" rx="0.926745" fill="#FF7A00"/>
<rect x="26.9453" y="43.4395" width="10.4259" height="1.85349" rx="0.926745" fill="#FF7A00"/>
<path d="M101.175 96.8438H107.19C106.188 101.522 109.195 103.861 109.195 103.861C106.522 103.861 101.509 103.193 101.175 96.8438Z" fill="#FF6B00"/>
<rect width="25.4855" height="18.5349" rx="7" transform="matrix(-1 0 0 1 117.301 82.0156)" fill="#FF6B00"/>
<rect width="12.0477" height="1.85349" rx="0.926745" transform="matrix(-1 0 0 1 113.129 86.1875)" fill="white"/>
<rect width="4.17035" height="1.85349" rx="0.926745" transform="matrix(-1 0 0 1 99.6914 86.1875)" fill="white"/>
<rect width="17.6082" height="1.85349" rx="0.926745" transform="matrix(-1 0 0 1 113.129 90.3574)" fill="white"/>
<rect width="17.6082" height="1.85349" rx="0.926745" transform="matrix(-1 0 0 1 113.129 94.5273)" fill="white"/>
</svg>
