<svg width="135" height="135" viewBox="0 0 135 135" fill="none" xmlns="http://www.w3.org/2000/svg">
<rect width="134.378" height="134.378" rx="30" fill="#212261"/>
<path d="M33 43C33 39.6863 35.6863 37 39 37H96.0425C99.3562 37 102.042 39.6863 102.042 43V75.9471C102.042 79.2608 99.3562 81.9471 96.0425 81.9471H39C35.6863 81.9471 33 79.2608 33 75.9471V43Z" fill="#F6F7FA" fill-opacity="0.12"/>
<rect x="42.2734" y="44.4131" width="24.0954" height="6.48721" rx="2" fill="#F6F7FA" fill-opacity="0.15"/>
<rect x="42.2734" y="53.2178" width="24.0954" height="6.95059" rx="2" fill="#F6F7FA" fill-opacity="0.15"/>
<rect x="42.2734" y="62.4849" width="24.0954" height="6.48721" rx="2" fill="#F6F7FA" fill-opacity="0.15"/>
<rect x="68.6797" y="44.4131" width="24.0954" height="6.48721" rx="2" fill="#F6F7FA" fill-opacity="0.15"/>
<rect x="68.6797" y="53.2178" width="24.0954" height="6.95059" rx="2" fill="#F6F7FA" fill-opacity="0.15"/>
<rect x="68.6797" y="62.4849" width="24.0954" height="6.48721" rx="2" fill="#F6F7FA" fill-opacity="0.15"/>
<path d="M102.047 75.946C102.047 79.2598 99.3606 81.946 96.0469 81.946L39.0044 81.946C35.6907 81.946 33.0044 79.2597 33.0044 75.946L33.0044 74.5321L102.047 74.5321L102.047 75.946Z" fill="#F6F7FA" fill-opacity="0.12"/>
<rect x="51.5391" y="94.4575" width="32.4361" height="3.70698" rx="1.85349" fill="#F6F7FA" fill-opacity="0.12"/>
<path d="M61.7285 84.7266H74.2395L76.093 92.1405H59.875L61.7285 84.7266Z" fill="#F6F7FA" fill-opacity="0.12"/>
<g clip-path="url(#clip0_12284_15119)">
<path d="M108.032 88.5903C108.936 85.4917 108.032 82.6514 108.032 82.6514H105.95C105.764 82.0099 105.518 81.3947 105.216 80.8123L106.744 79.2839C105.192 76.4538 102.545 75.0845 102.545 75.0845L101.073 76.5563C100.498 76.239 99.889 75.9759 99.2528 75.7732V73.6141C96.1543 72.7103 93.314 73.6141 93.314 73.6141V75.6962C92.6725 75.8821 92.0573 76.1285 91.4749 76.4302L89.9468 74.9019C87.1167 76.4538 85.7474 79.1013 85.7474 79.1013L87.2191 80.573C86.9019 81.1483 86.6385 81.7571 86.436 82.3932H84.2767C83.3729 85.4917 84.2767 88.332 84.2767 88.332H86.3588C86.5444 88.9735 86.7911 89.5887 87.0928 90.1712L85.5647 91.6995C87.1167 94.5296 89.7641 95.8989 89.7641 95.8989L91.2359 94.4272C91.8112 94.7444 92.4199 95.0075 93.056 95.2102V97.3694C96.1546 98.2731 98.9949 97.3694 98.9949 97.3694V95.2872C99.6363 95.1014 100.252 94.8549 100.834 94.5532L102.362 96.0816C105.192 94.5296 106.562 91.8821 106.562 91.8821L105.09 90.4104C105.407 89.8351 105.67 89.2264 105.873 88.5903H108.032ZM96.1543 92.4633C92.3041 92.4633 89.1827 89.342 89.1827 85.4917C89.1827 81.6415 92.3041 78.5201 96.1543 78.5201C100.005 78.5201 103.126 81.6415 103.126 85.4917C103.126 89.342 100.005 92.4633 96.1543 92.4633Z" fill="white"/>
</g>
<g clip-path="url(#clip1_12284_15119)">
<path d="M109.775 76.0123C108.702 76.5095 107.779 77.3753 107.21 78.5484C106.282 80.4606 106.539 82.6647 107.69 84.2752L102.2 95.584C101.609 96.8019 102.083 98.2855 103.258 98.8979C104.434 99.5102 105.867 99.0193 106.458 97.8015L111.948 86.4927C113.882 86.4883 115.744 85.3883 116.672 83.4761C117.647 81.4671 117.316 79.1345 116.013 77.5083L114.19 81.2631L110.405 79.2921L112.228 75.5371C111.38 75.4899 110.54 75.6583 109.775 76.0123" fill="#FF6B00"/>
</g>
<defs>
<clipPath id="clip0_12284_15119">
<rect width="24.5587" height="24.5587" fill="white" transform="translate(83.875 73.2124)"/>
</clipPath>
<clipPath id="clip1_12284_15119">
<rect width="15.2913" height="23.632" fill="white" transform="translate(101.945 75.5298)"/>
</clipPath>
</defs>
</svg>
