<svg width="135" height="135" viewBox="0 0 135 135" fill="none" xmlns="http://www.w3.org/2000/svg">
<rect width="134.378" height="134.378" rx="30" fill="#212261"/>
<path d="M33 43C33 39.6863 35.6863 37 39 37H96.0425C99.3562 37 102.042 39.6863 102.042 43V75.9471C102.042 79.2608 99.3562 81.9471 96.0425 81.9471H39C35.6863 81.9471 33 79.2608 33 75.9471V43Z" fill="#F6F7FA" fill-opacity="0.12"/>
<rect x="42.2734" y="44.4136" width="24.0954" height="6.48721" rx="2" fill="#F6F7FA" fill-opacity="0.15"/>
<rect x="42.2734" y="53.2183" width="24.0954" height="6.95059" rx="2" fill="#F6F7FA" fill-opacity="0.15"/>
<rect x="42.2734" y="62.4854" width="24.0954" height="6.48721" rx="2" fill="#F6F7FA" fill-opacity="0.15"/>
<rect x="68.6797" y="44.4136" width="24.0954" height="6.48721" rx="2" fill="#F6F7FA" fill-opacity="0.15"/>
<rect x="68.6797" y="53.2183" width="24.0954" height="6.95059" rx="2" fill="#F6F7FA" fill-opacity="0.15"/>
<rect x="68.6797" y="62.4854" width="24.0954" height="6.48721" rx="2" fill="#F6F7FA" fill-opacity="0.15"/>
<path d="M102.047 75.9465C102.047 79.2602 99.3606 81.9465 96.0469 81.9465L39.0044 81.9465C35.6907 81.9465 33.0044 79.2602 33.0044 75.9465L33.0044 74.5326L102.047 74.5326L102.047 75.9465Z" fill="#F6F7FA" fill-opacity="0.12"/>
<rect x="51.5391" y="94.4578" width="32.4361" height="3.70698" rx="1.85349" fill="#F6F7FA" fill-opacity="0.12"/>
<path d="M61.7285 84.7271H74.2395L76.093 92.141H59.875L61.7285 84.7271Z" fill="#F6F7FA" fill-opacity="0.12"/>
<g clip-path="url(#clip0_12284_15281)">
<path d="M87.125 64C85.6758 64 84.5 65.0498 84.5 66.3438V68.6875H81.875C81.3937 68.6875 81 69.0391 81 69.4688C81 69.8984 81.3937 70.25 81.875 70.25H84.5H95.875C96.3562 70.25 96.75 70.6016 96.75 71.0312C96.75 71.4609 96.3562 71.8125 95.875 71.8125H84.5H83.625C83.1437 71.8125 82.75 72.1641 82.75 72.5938C82.75 73.0234 83.1437 73.375 83.625 73.375H84.5H94.125C94.6062 73.375 95 73.7266 95 74.1562C95 74.5859 94.6062 74.9375 94.125 74.9375H84.5H81.875C81.3937 74.9375 81 75.2891 81 75.7188C81 76.1484 81.3937 76.5 81.875 76.5H84.5H92.375C92.8562 76.5 93.25 76.8516 93.25 77.2812C93.25 77.7109 92.8562 78.0625 92.375 78.0625H84.5V84.3125C84.5 86.9004 86.8516 89 89.75 89C92.6484 89 95 86.9004 95 84.3125H102C102 86.9004 104.352 89 107.25 89C110.148 89 112.5 86.9004 112.5 84.3125H114.25C115.218 84.3125 116 83.6143 116 82.75C116 81.8857 115.218 81.1875 114.25 81.1875V78.0625V76.5V75.5869C114.25 74.7568 113.884 73.9609 113.227 73.375L109 69.6006C108.344 69.0146 107.452 68.6875 106.523 68.6875H103.75V66.3438C103.75 65.0498 102.574 64 101.125 64H87.125ZM110.75 75.5869V76.5H103.75V71.8125H106.523L110.75 75.5869ZM89.75 81.9688C90.4462 81.9688 91.1139 82.2157 91.6062 82.6552C92.0984 83.0948 92.375 83.6909 92.375 84.3125C92.375 84.9341 92.0984 85.5302 91.6062 85.9698C91.1139 86.4093 90.4462 86.6562 89.75 86.6562C89.0538 86.6562 88.3861 86.4093 87.8938 85.9698C87.4016 85.5302 87.125 84.9341 87.125 84.3125C87.125 83.6909 87.4016 83.0948 87.8938 82.6552C88.3861 82.2157 89.0538 81.9688 89.75 81.9688ZM104.625 84.3125C104.625 83.6909 104.902 83.0948 105.394 82.6552C105.886 82.2157 106.554 81.9688 107.25 81.9688C107.946 81.9688 108.614 82.2157 109.106 82.6552C109.598 83.0948 109.875 83.6909 109.875 84.3125C109.875 84.9341 109.598 85.5302 109.106 85.9698C108.614 86.4093 107.946 86.6562 107.25 86.6562C106.554 86.6562 105.886 86.4093 105.394 85.9698C104.902 85.5302 104.625 84.9341 104.625 84.3125Z" fill="#FF7A00"/>
</g>
<path d="M28.6927 33.1066C29.1133 32.9162 29.6081 32.9845 29.9594 33.2824L31.9583 34.972L33.9573 33.2824C34.4026 32.9064 35.0607 32.9064 35.501 33.2824L37.5 34.972L39.499 33.2824C39.9443 32.9064 40.6023 32.9064 41.0427 33.2824L43.0417 34.972L45.0406 33.2824C45.3919 32.9845 45.8867 32.9162 46.3073 33.1066C46.7279 33.2971 47 33.7121 47 34.1711V56.8289C47 57.2879 46.7279 57.7029 46.3073 57.8934C45.8867 58.0838 45.3919 58.0155 45.0406 57.7176L43.0417 56.028L41.0427 57.7176C40.5974 58.0936 39.9393 58.0936 39.499 57.7176L37.5 56.028L35.501 57.7176C35.0557 58.0936 34.3977 58.0936 33.9573 57.7176L31.9583 56.028L29.9594 57.7176C29.6081 58.0155 29.1133 58.0838 28.6927 57.8934C28.2721 57.7029 28 57.2879 28 56.8289V34.1711C28 33.7121 28.2721 33.2971 28.6927 33.1066ZM32.75 40.0309C32.3146 40.0309 31.9583 40.3825 31.9583 40.8122C31.9583 41.2419 32.3146 41.5935 32.75 41.5935H42.25C42.6854 41.5935 43.0417 41.2419 43.0417 40.8122C43.0417 40.3825 42.6854 40.0309 42.25 40.0309H32.75ZM31.9583 50.1878C31.9583 50.6175 32.3146 50.9691 32.75 50.9691H42.25C42.6854 50.9691 43.0417 50.6175 43.0417 50.1878C43.0417 49.7581 42.6854 49.4065 42.25 49.4065H32.75C32.3146 49.4065 31.9583 49.7581 31.9583 50.1878ZM32.75 44.7187C32.3146 44.7187 31.9583 45.0703 31.9583 45.5C31.9583 45.9297 32.3146 46.2813 32.75 46.2813H42.25C42.6854 46.2813 43.0417 45.9297 43.0417 45.5C43.0417 45.0703 42.6854 44.7187 42.25 44.7187H32.75Z" fill="white"/>
<defs>
<clipPath id="clip0_12284_15281">
<rect width="35" height="25" fill="white" transform="translate(81 64)"/>
</clipPath>
</defs>
</svg>
