<svg width="135" height="136" viewBox="0 0 135 136" fill="none" xmlns="http://www.w3.org/2000/svg">
<rect x="0.625" y="0.863281" width="134.378" height="134.378" rx="30" fill="#212261"/>
<path d="M33.5234 43.4707C33.5234 40.157 36.2097 37.4707 39.5234 37.4707H96.5659C99.8796 37.4707 102.566 40.157 102.566 43.4707V76.4178C102.566 79.7315 99.8796 82.4178 96.5659 82.4178H39.5234C36.2097 82.4178 33.5234 79.7315 33.5234 76.4178V43.4707Z" fill="#F6F7FA" fill-opacity="0.12"/>
<rect x="42.7969" y="44.8828" width="24.0954" height="6.48721" rx="2" fill="#F6F7FA" fill-opacity="0.15"/>
<rect x="42.7969" y="53.6875" width="24.0954" height="6.95059" rx="2" fill="#F6F7FA" fill-opacity="0.15"/>
<rect x="42.7969" y="62.9551" width="24.0954" height="6.48721" rx="2" fill="#F6F7FA" fill-opacity="0.15"/>
<rect x="69.2031" y="44.8828" width="24.0954" height="6.48721" rx="2" fill="#F6F7FA" fill-opacity="0.15"/>
<rect x="69.2031" y="53.6875" width="24.0954" height="6.95059" rx="2" fill="#F6F7FA" fill-opacity="0.15"/>
<rect x="69.2031" y="62.9551" width="24.0954" height="6.48721" rx="2" fill="#F6F7FA" fill-opacity="0.15"/>
<path d="M102.566 76.416C102.566 79.7297 99.8801 82.416 96.5664 82.416L39.5239 82.416C36.2102 82.416 33.5239 79.7297 33.5239 76.416L33.5239 75.002L102.566 75.0021L102.566 76.416Z" fill="#F6F7FA" fill-opacity="0.12"/>
<rect x="52.0586" y="94.9277" width="32.4361" height="3.70698" rx="1.85349" fill="#F6F7FA" fill-opacity="0.12"/>
<path d="M62.2558 85.1973H74.7669L76.6204 92.6112H60.4023L62.2558 85.1973Z" fill="#F6F7FA" fill-opacity="0.12"/>
<g clip-path="url(#clip0_7628_7221)">
<path d="M108.653 89.454C109.557 86.3555 108.653 83.5152 108.653 83.5152H106.571C106.385 82.8737 106.139 82.2585 105.837 81.676L107.365 80.1477C105.813 77.3176 103.166 75.9483 103.166 75.9483L101.694 77.42C101.119 77.1028 100.51 76.8397 99.8739 76.637V74.4778C96.7754 73.5741 93.9351 74.4778 93.9351 74.4778V76.56C93.2936 76.7458 92.6784 76.9923 92.096 77.294L90.5679 75.7656C87.7378 77.3176 86.3685 79.9651 86.3685 79.9651L87.8402 81.4368C87.523 82.0121 87.2596 82.6208 87.0571 83.2569H84.8978C83.994 86.3555 84.8978 89.1958 84.8978 89.1958H86.9799C87.1655 89.8372 87.4122 90.4524 87.7139 91.0349L86.1858 92.5633C87.7378 95.3934 90.3852 96.7627 90.3852 96.7627L91.857 95.2909C92.4322 95.6082 93.041 95.8713 93.6771 96.074V98.2331C96.7757 99.1369 99.616 98.2331 99.616 98.2331V96.151C100.257 95.9651 100.873 95.7187 101.455 95.417L102.983 96.9453C105.813 95.3934 107.183 92.7459 107.183 92.7459L105.711 91.2741C106.028 90.6989 106.291 90.0901 106.494 89.454H108.653ZM96.7754 93.3271C92.9252 93.3271 89.8038 90.2057 89.8038 86.3555C89.8038 82.5052 92.9252 79.3839 96.7754 79.3839C100.626 79.3839 103.747 82.5052 103.747 86.3555C103.747 90.2057 100.626 93.3271 96.7754 93.3271Z" fill="white"/>
</g>
<g clip-path="url(#clip1_7628_7221)">
<path d="M110.396 76.8756C109.323 77.3728 108.4 78.2385 107.831 79.4117C106.903 81.3239 107.16 83.5279 108.311 85.1385L102.821 96.4473C102.23 97.6652 102.704 99.1488 103.879 99.7611C105.055 100.373 106.488 99.8826 107.079 98.6648L112.569 87.356C114.503 87.3516 116.365 86.2516 117.293 84.3394C118.268 82.3304 117.937 79.9977 116.634 78.3715L114.811 82.1263L111.026 80.1554L112.849 76.4004C112.001 76.3532 111.161 76.5216 110.396 76.8756" fill="#FF6B00"/>
</g>
<defs>
<clipPath id="clip0_7628_7221">
<rect width="24.5587" height="24.5587" fill="white" transform="translate(84.4961 74.0762)"/>
</clipPath>
<clipPath id="clip1_7628_7221">
<rect width="15.2913" height="23.632" fill="white" transform="translate(102.566 76.3926)"/>
</clipPath>
</defs>
</svg>
