<svg width="135" height="136" viewBox="0 0 135 136" fill="none" xmlns="http://www.w3.org/2000/svg">
<rect x="0.515625" y="0.660156" width="134.378" height="134.378" rx="30" fill="#212261"/>
<rect x="21.3672" y="34.4863" width="92.6745" height="66.2623" rx="6" fill="#F6F7FA" fill-opacity="0.12"/>
<rect x="31.5625" y="46.0703" width="72.7495" height="6.95059" rx="2" fill="#F6F7FA" fill-opacity="0.15"/>
<rect x="31.5625" y="56.2656" width="72.7495" height="6.48721" rx="2" fill="#F6F7FA" fill-opacity="0.15"/>
<rect x="31.5625" y="65.9961" width="34.2896" height="24.5587" rx="2" fill="#F6F7FA" fill-opacity="0.15"/>
<rect x="68.6289" y="65.9961" width="35.6797" height="24.5587" rx="2" fill="#F6F7FA" fill-opacity="0.15"/>
<rect x="73.2656" y="70.166" width="12.5111" height="7.41396" rx="2" fill="#414278"/>
<rect x="73.2656" y="79.4336" width="12.5111" height="7.41396" rx="2" fill="#414278"/>
<rect x="87.6289" y="79.4336" width="12.5111" height="7.41396" rx="2" fill="#414278"/>
<rect x="87.6289" y="70.166" width="12.5111" height="7.41396" rx="2" fill="#FF6B00"/>
<circle cx="106.247" cy="76.1479" r="7.40746" transform="rotate(7.9251 106.247 76.1479)" stroke="white" stroke-width="4"/>
<path d="M117.138 93.3748C117.826 94.2387 119.084 94.3811 119.948 93.6928C120.812 93.0045 120.954 91.7462 120.266 90.8823L117.138 93.3748ZM109.787 84.1486L117.138 93.3748L120.266 90.8823L112.916 81.6561L109.787 84.1486Z" fill="white"/>
<path d="M113.598 90.2109L117.898 86.9516L122.664 93.24C123.564 94.4274 123.331 96.1196 122.144 97.0196C120.956 97.9197 119.264 97.6867 118.364 96.4993L113.598 90.2109Z" fill="#FF6B00"/>
</svg>
