<svg width="135" height="135" viewBox="0 0 135 135" fill="none" xmlns="http://www.w3.org/2000/svg">
<rect width="134.378" height="134.378" rx="30" fill="#212261"/>
<path d="M32 43C32 39.6863 34.6863 37 38 37H95.0425C98.3562 37 101.042 39.6863 101.042 43V75.9471C101.042 79.2608 98.3562 81.9471 95.0425 81.9471H38C34.6863 81.9471 32 79.2608 32 75.9471V43Z" fill="#F6F7FA" fill-opacity="0.12"/>
<rect x="41.2734" y="45.9893" width="50.596" height="4.63372" rx="2" fill="#F6F7FA" fill-opacity="0.15"/>
<rect x="41.2734" y="62.6709" width="35.3118" height="4.63372" rx="2" fill="#F6F7FA" fill-opacity="0.15"/>
<rect x="41.2734" y="54.3301" width="42.1634" height="4.63372" rx="2" fill="#F6F7FA" fill-opacity="0.15"/>
<path d="M101.047 75.9468C101.047 79.2605 98.3606 81.9468 95.0469 81.9468L38.0044 81.9468C34.6907 81.9468 32.0044 79.2605 32.0044 75.9468L32.0044 74.9962L101.047 74.9962L101.047 75.9468Z" fill="#F6F7FA" fill-opacity="0.12"/>
<rect x="50.0703" y="93.9946" width="32.4361" height="3.70698" rx="1.85349" fill="#F6F7FA" fill-opacity="0.12"/>
<path d="M60.2597 84.2632H72.7708L74.6243 91.6771H58.4062L60.2597 84.2632Z" fill="#F6F7FA" fill-opacity="0.12"/>
<path d="M36.7801 45.0869H31.1501C32.0884 49.5781 29.2734 51.8236 29.2734 51.8236C31.7756 51.8236 36.4673 51.182 36.7801 45.0869Z" fill="white"/>
<rect x="21.7656" y="30.9717" width="23.771" height="17.323" rx="7" fill="white"/>
<rect x="25.9453" y="35.1416" width="13.0324" height="1.85349" rx="0.926745" fill="#FF7A00"/>
<rect x="25.9453" y="38.791" width="15.1175" height="1.85349" rx="0.926745" fill="#FF7A00"/>
<rect x="25.9453" y="42.4399" width="10.4259" height="1.85349" rx="0.926745" fill="#FF7A00"/>
<path d="M96.3548 86.8279H102.37C101.367 91.5063 104.375 93.8455 104.375 93.8455C101.702 93.8455 96.689 93.1772 96.3548 86.8279Z" fill="#FF6B00"/>
<rect width="25.4855" height="18.5349" rx="7" transform="matrix(-1 0 0 1 112.484 72)" fill="#FF6B00"/>
<rect width="12.0477" height="1.85349" rx="0.926745" transform="matrix(-1 0 0 1 108.312 76.1704)" fill="white"/>
<rect width="4.17035" height="1.85349" rx="0.926745" transform="matrix(-1 0 0 1 94.875 76.1704)" fill="white"/>
<rect width="17.6082" height="1.85349" rx="0.926745" transform="matrix(-1 0 0 1 108.312 80.3408)" fill="white"/>
<rect width="17.6082" height="1.85349" rx="0.926745" transform="matrix(-1 0 0 1 108.312 84.511)" fill="white"/>
</svg>
