<svg width="135" height="136" viewBox="0 0 135 136" fill="none" xmlns="http://www.w3.org/2000/svg">
<rect x="0.285156" y="0.863281" width="134.378" height="134.378" rx="30" fill="#212261"/>
<path d="M33.1836 43.4707C33.1836 40.157 35.8699 37.4707 39.1836 37.4707H96.2261C99.5398 37.4707 102.226 40.157 102.226 43.4707V76.4178C102.226 79.7315 99.5398 82.4178 96.2261 82.4178H39.1836C35.8699 82.4178 33.1836 79.7315 33.1836 76.4178V43.4707Z" fill="#F6F7FA" fill-opacity="0.12"/>
<rect x="42.457" y="44.8828" width="24.0954" height="6.48721" rx="2" fill="#F6F7FA" fill-opacity="0.15"/>
<rect x="42.457" y="53.6875" width="24.0954" height="6.95059" rx="2" fill="#F6F7FA" fill-opacity="0.15"/>
<rect x="42.457" y="62.9551" width="24.0954" height="6.48721" rx="2" fill="#F6F7FA" fill-opacity="0.15"/>
<rect x="68.8633" y="44.8828" width="24.0954" height="6.48721" rx="2" fill="#F6F7FA" fill-opacity="0.15"/>
<rect x="68.8633" y="53.6875" width="24.0954" height="6.95059" rx="2" fill="#F6F7FA" fill-opacity="0.15"/>
<rect x="68.8633" y="62.9551" width="24.0954" height="6.48721" rx="2" fill="#F6F7FA" fill-opacity="0.15"/>
<path d="M102.227 76.416C102.227 79.7297 99.5403 82.416 96.2266 82.416L39.1841 82.416C35.8704 82.416 33.1841 79.7297 33.1841 76.416L33.1841 75.002L102.227 75.0021L102.227 76.416Z" fill="#F6F7FA" fill-opacity="0.12"/>
<rect x="51.7188" y="94.9277" width="32.4361" height="3.70698" rx="1.85349" fill="#F6F7FA" fill-opacity="0.12"/>
<path d="M61.916 85.1973H74.427L76.2805 92.6112H60.0625L61.916 85.1973Z" fill="#F6F7FA" fill-opacity="0.12"/>
<g clip-path="url(#clip0_7628_7135)">
<path d="M108.313 89.454C109.217 86.3555 108.313 83.5152 108.313 83.5152H106.231C106.045 82.8737 105.799 82.2585 105.497 81.676L107.025 80.1477C105.473 77.3176 102.826 75.9483 102.826 75.9483L101.354 77.42C100.779 77.1028 100.17 76.8397 99.5341 76.637V74.4778C96.4356 73.5741 93.5953 74.4778 93.5953 74.4778V76.56C92.9538 76.7458 92.3386 76.9923 91.7561 77.294L90.228 75.7656C87.3979 77.3176 86.0286 79.9651 86.0286 79.9651L87.5004 81.4368C87.1831 82.0121 86.9198 82.6208 86.7173 83.2569H84.5579C83.6542 86.3555 84.5579 89.1958 84.5579 89.1958H86.6401C86.8256 89.8372 87.0724 90.4524 87.3741 91.0349L85.846 92.5633C87.3979 95.3934 90.0454 96.7627 90.0454 96.7627L91.5172 95.2909C92.0924 95.6082 92.7012 95.8713 93.3373 96.074V98.2331C96.4358 99.1369 99.2761 98.2331 99.2761 98.2331V96.151C99.9176 95.9651 100.533 95.7187 101.115 95.417L102.643 96.9453C105.473 95.3934 106.843 92.7459 106.843 92.7459L105.371 91.2741C105.688 90.6989 105.952 90.0901 106.154 89.454H108.313ZM96.4356 93.3271C92.5853 93.3271 89.464 90.2057 89.464 86.3555C89.464 82.5052 92.5853 79.3839 96.4356 79.3839C100.286 79.3839 103.407 82.5052 103.407 86.3555C103.407 90.2057 100.286 93.3271 96.4356 93.3271Z" fill="white"/>
</g>
<g clip-path="url(#clip1_7628_7135)">
<path d="M110.056 76.8756C108.983 77.3728 108.061 78.2385 107.491 79.4117C106.563 81.3239 106.821 83.5279 107.971 85.1385L102.481 96.4473C101.89 97.6652 102.364 99.1488 103.54 99.7611C104.715 100.373 106.148 99.8826 106.739 98.6648L112.229 87.356C114.163 87.3516 116.025 86.2516 116.953 84.3394C117.928 82.3304 117.597 79.9977 116.294 78.3715L114.471 82.1263L110.686 80.1554L112.509 76.4004C111.661 76.3532 110.821 76.5216 110.056 76.8756" fill="#FF6B00"/>
</g>
<defs>
<clipPath id="clip0_7628_7135">
<rect width="24.5587" height="24.5587" fill="white" transform="translate(84.1562 74.0762)"/>
</clipPath>
<clipPath id="clip1_7628_7135">
<rect width="15.2913" height="23.632" fill="white" transform="translate(102.227 76.3926)"/>
</clipPath>
</defs>
</svg>
