<svg width="135" height="135" viewBox="0 0 135 135" fill="none" xmlns="http://www.w3.org/2000/svg">
<rect width="134.378" height="134.378" rx="30" fill="#212261"/>
<path d="M32.8984 45.3867C32.8984 42.073 35.5847 39.3867 38.8984 39.3867H95.9409C99.2546 39.3867 101.941 42.073 101.941 45.3867V78.3338C101.941 81.6476 99.2546 84.3338 95.9409 84.3338H38.8984C35.5847 84.3338 32.8984 81.6476 32.8984 78.3338V45.3867Z" fill="#F6F7FA" fill-opacity="0.12"/>
<rect x="42.1719" y="48.376" width="50.596" height="4.63372" rx="2" fill="#FF7A00"/>
<rect x="42.1719" y="65.0576" width="35.3118" height="4.63372" rx="2" fill="#F6F7FA" fill-opacity="0.15"/>
<rect x="42.1719" y="56.7168" width="42.1634" height="4.63372" rx="2" fill="white"/>
<path d="M101.945 78.3335C101.945 81.6472 99.259 84.3335 95.9453 84.3335L38.9028 84.3335C35.5891 84.3335 32.9028 81.6472 32.9028 78.3335L32.9028 77.3829L101.945 77.3829L101.945 78.3335Z" fill="#F6F7FA" fill-opacity="0.12"/>
<rect x="50.9688" y="96.3813" width="32.4361" height="3.70698" rx="1.85349" fill="#F6F7FA" fill-opacity="0.12"/>
<path d="M61.1582 86.6499H73.6692L75.5227 94.0639H59.3047L61.1582 86.6499Z" fill="#F6F7FA" fill-opacity="0.12"/>
<g clip-path="url(#clip0_12284_15282)">
<path d="M109.791 67.1868C108.593 65.9892 106.657 65.9892 105.459 67.1868L103.813 68.8274L109.167 74.1813L110.813 72.5353C112.011 71.3376 112.011 69.4017 110.813 68.204L109.791 67.1868ZM93.4281 79.2181C93.0945 79.5517 92.8375 79.9618 92.6898 80.4157L91.0711 85.272C90.9125 85.7423 91.0383 86.2618 91.3883 86.6173C91.7383 86.9728 92.2578 87.0931 92.7336 86.9345L97.5898 85.3157C98.0383 85.1681 98.4484 84.911 98.7875 84.5774L107.937 75.4228L102.577 70.0634L93.4281 79.2181ZM89.25 69.5001C86.3516 69.5001 84 71.8517 84 74.7501V88.7501C84 91.6485 86.3516 94.0001 89.25 94.0001H103.25C106.148 94.0001 108.5 91.6485 108.5 88.7501V83.5001C108.5 82.5321 107.718 81.7501 106.75 81.7501C105.782 81.7501 105 82.5321 105 83.5001V88.7501C105 89.7181 104.218 90.5001 103.25 90.5001H89.25C88.282 90.5001 87.5 89.7181 87.5 88.7501V74.7501C87.5 73.7821 88.282 73.0001 89.25 73.0001H94.5C95.468 73.0001 96.25 72.2181 96.25 71.2501C96.25 70.2821 95.468 69.5001 94.5 69.5001H89.25Z" fill="white"/>
</g>
<defs>
<clipPath id="clip0_12284_15282">
<rect width="28" height="28" fill="white" transform="translate(84 66)"/>
</clipPath>
</defs>
</svg>
