<svg id="Layer_2" data-name="Layer 2" xmlns="http://www.w3.org/2000/svg" viewBox="0 0 144.7 67.04">
  <defs>
    <style>
      .cls-1 {
        fill: #222;
      }
      .cls-2, .cls-3, .cls-4, .cls-5 {
        fill: #ff7c24;
      }
      .cls-3 {
        opacity: .5;
      }
      .cls-4 {
        opacity: .8;
      }
      .cls-6 {
        fill: #707070;
      }
      .cls-5 {
        opacity: .3;
      }
    </style>
  </defs>
  <g id="Layer_1-2" data-name="Layer 1">
    <g>
      <g>
        <rect class="cls-4" x="130.82" y=".44" width="6.43" height="21.04" rx="3.22" ry="3.22"/>
        <rect class="cls-4" x="130.82" y=".44" width="6.43" height="21.04" rx="3.22" ry="3.22" transform="translate(145 -123.08) rotate(90)"/>
      </g>
      <path class="cls-2" d="m70.78,55.87l-5.78,5.78c-3.64,3.64-9.55,3.64-13.19,0L0,9.84l5.78-5.78c3.64-3.64,9.55-3.64,13.19,0l51.8,51.8Z"/>
      <path class="cls-4" d="m56.18-6.71h12.91c2.7,0,4.89,2.19,4.89,4.89v75.38h-12.91c-2.7,0-4.89-2.19-4.89-4.89V-6.71h0Z" transform="translate(-4.58 55.81) rotate(-45)"/>
      <path class="cls-3" d="m78.65-2.7h12.61c2.7,0,4.89,2.19,4.89,4.89v53.56h-12.61c-2.7,0-4.89-2.19-4.89-4.89V-2.7h0Z" transform="translate(6.84 69.57) rotate(-45)"/>
      <path class="cls-5" d="m128.76,26.5l-8.59,8.59c-2.09,2.09-5.69,1.88-8.04-.48l-24.29-24.29,8.59-8.59c2.09-2.09,5.69-1.88,8.04.48l24.29,24.29Z"/>
    </g>
  </g>
</svg>