<svg width="38" height="36" viewBox="0 0 38 36" fill="none" xmlns="http://www.w3.org/2000/svg">
<g clip-path="url(#clip0_2181_11507)">
<path d="M8.08964 2.43792L1.28326 9.34644L26.2707 34.7088L33.077 27.8003L8.08964 2.43792Z" stroke="#FF7A00" stroke-linecap="round" stroke-linejoin="round"/>
<path d="M24.2601 18.2872L27.295 15.27C29.7411 16.1321 32.5665 15.6091 34.5539 13.6551C36.6433 11.6033 37.2208 8.5631 36.2696 5.9654L32.3627 9.79874L28.4218 5.65506L32.3287 1.82172C31.2755 1.38494 30.1431 1.21253 29.0277 1.31023C27.4592 1.44241 25.9248 2.10333 24.7018 3.29874C22.7087 5.25276 22.0972 8.09759 22.8616 10.6091L19.6058 13.8332" stroke="#FF7A00" stroke-linecap="round" stroke-linejoin="round"/>
<path d="M12.6527 20.8735L5.24094 28.0862C3.97262 29.3276 3.93865 31.3793 5.16167 32.6666C6.3847 33.954 8.40609 33.9885 9.67441 32.7471L17.1768 25.4712" stroke="#FF7A00" stroke-linecap="round" stroke-linejoin="round"/>
<path d="M6.59988 14.3391L9.34603 11.5518" stroke="#FF7A00" stroke-linecap="round" stroke-linejoin="round"/>
<path d="M8.97797 16.7472L11.1522 14.5403" stroke="#FF7A00" stroke-linecap="round" stroke-linejoin="round"/>
<path d="M11.3504 19.1609L14.0966 16.3735" stroke="#FF7A00" stroke-linecap="round" stroke-linejoin="round"/>
<path d="M18.8415 21.1953L16.101 23.9827" stroke="#FF7A00" stroke-linecap="round" stroke-linejoin="round"/>
<path d="M18.4734 26.3909L20.6533 24.1782" stroke="#FF7A00" stroke-linecap="round" stroke-linejoin="round"/>
<path d="M23.592 26.0173L20.8515 28.8047" stroke="#FF7A00" stroke-linecap="round" stroke-linejoin="round"/>
<path d="M13.7285 21.569L15.9028 19.3621" stroke="#FF7A00" stroke-linecap="round" stroke-linejoin="round"/>
</g>
<defs>
<clipPath id="clip0_2181_11507">
<rect width="38" height="36" fill="white"/>
</clipPath>
</defs>
</svg>
