<svg width="36" height="36" viewBox="0 0 36 36" fill="none" xmlns="http://www.w3.org/2000/svg">
<g clip-path="url(#clip0_2181_11469)">
<path d="M35.0632 22.3896C36.3677 17.9186 35.0632 13.8154 35.0632 13.8154H32.0593C31.7922 12.8902 31.4361 11.9999 30.9987 11.1599L33.2051 8.95348C30.9639 4.8696 27.1432 2.89154 27.1432 2.89154L25.0181 5.0167C24.1897 4.55993 23.3071 4.18057 22.3897 3.88638V0.774121C17.9187 -0.530395 13.8155 0.774121 13.8155 0.774121V3.77799C12.8903 4.04509 12 4.40122 11.16 4.83864L8.95354 2.63219C4.86967 4.87348 2.8916 8.69412 2.8916 8.69412L5.01676 10.8193C4.55999 11.6477 4.18063 12.5302 3.88644 13.4477H0.774182C-0.530334 17.9186 0.774182 22.0219 0.774182 22.0219H3.77805C4.04515 22.947 4.40128 23.8373 4.8387 24.6773L2.63225 26.8838C4.87354 30.9677 8.69418 32.9457 8.69418 32.9457L10.8193 30.8206C11.6477 31.2773 12.5303 31.6567 13.4477 31.9509V35.067C17.9187 36.3715 22.0219 35.067 22.0219 35.067V32.0632C22.9471 31.7961 23.8374 31.4399 24.6774 31.0025L26.8839 33.209C30.9677 30.9677 32.9458 27.147 32.9458 27.147L30.8206 25.0219C31.2774 24.1935 31.6568 23.3109 31.951 22.3935H35.0671L35.0632 22.3896Z" stroke="#FF7A00" stroke-linecap="round" stroke-linejoin="round"/>
<path d="M17.9187 27.9833C23.4772 27.9833 27.9832 23.4772 27.9832 17.9188C27.9832 12.3603 23.4772 7.85425 17.9187 7.85425C12.3602 7.85425 7.85419 12.3603 7.85419 17.9188C7.85419 23.4772 12.3602 27.9833 17.9187 27.9833Z" stroke="#FF7A00" stroke-linecap="round" stroke-linejoin="round"/>
<path d="M12.7935 17.0787L16.5213 20.9923L23.0438 14.8413" stroke="#FF7A00" stroke-linecap="round" stroke-linejoin="round"/>
</g>
<defs>
<clipPath id="clip0_2181_11469">
<rect width="36" height="36" fill="white"/>
</clipPath>
</defs>
</svg>
