<svg width="36" height="36" viewBox="0 0 36 36" fill="none" xmlns="http://www.w3.org/2000/svg">
<path d="M9.48138 6.84985H22.2376" stroke="#FF7A00" stroke-linecap="round" stroke-linejoin="round"/>
<path d="M9.48138 10.6606H22.2376" stroke="#FF7A00" stroke-linecap="round" stroke-linejoin="round"/>
<path d="M9.48138 14.4636H16.774" stroke="#FF7A00" stroke-linecap="round" stroke-linejoin="round"/>
<path d="M13.4865 22.0774L5.10583 30.9614" stroke="#FF7A00" stroke-linecap="round" stroke-linejoin="round"/>
<path d="M22.2376 22.0774L30.6261 30.9614" stroke="#FF7A00" stroke-linecap="round" stroke-linejoin="round"/>
<path d="M1.77881 17.0042V31.9651C1.77881 33.2118 2.79584 34.2233 4.04938 34.2233H31.8639C33.1647 34.2233 34.2212 33.1726 34.2212 31.8788V17.0042" stroke="#FF7A00" stroke-linecap="round" stroke-linejoin="round"/>
<path d="M1.77881 17.0042C2.5199 17.31 3.35559 17.7961 4.78259 18.3842" stroke="#FF7A00" stroke-linecap="round" stroke-linejoin="round"/>
<path d="M31.2174 18.3842C32.6444 17.7961 33.488 17.3021 34.2212 17.0042" stroke="#FF7A00" stroke-linecap="round" stroke-linejoin="round"/>
<path d="M31.2174 18.3843C26.1402 20.4622 18.1931 23.7084 18.0512 23.7084C17.9093 23.7084 9.89925 20.4622 4.79047 18.3765" stroke="#FF7A00" stroke-linecap="round" stroke-linejoin="round"/>
<path d="M31.2174 18.3841V15.4907" stroke="#FF7A00" stroke-linecap="round" stroke-linejoin="round"/>
<path d="M4.78259 15.232V3.2037C4.78259 2.41174 5.42908 1.77661 6.21747 1.77661H29.7668C30.563 1.77661 31.2016 2.41959 31.2016 3.2037V15.4908" stroke="#FF7A00" stroke-linecap="round" stroke-linejoin="round"/>
<path d="M4.78259 15.2322V18.3843" stroke="#FF7A00" stroke-linecap="round" stroke-linejoin="round"/>
<path d="M34.2212 17.0041L31.2174 15.4907" stroke="#FF7A00" stroke-linecap="round" stroke-linejoin="round"/>
<path d="M4.78259 15.2322L1.77881 17.0043" stroke="#FF7A00" stroke-linecap="round" stroke-linejoin="round"/>
</svg>
