<svg width="35" height="36" viewBox="0 0 35 36" fill="none" xmlns="http://www.w3.org/2000/svg">
<g clip-path="url(#clip0_2181_11437)">
<path d="M27.2195 15.3619L27.1856 3.1537C27.1856 2.08942 26.3181 1.22934 25.2562 1.23243L3.1468 1.29431C2.08485 1.29431 1.22666 2.16367 1.22974 3.22795L1.31618 32.9256C1.31618 33.9898 2.18364 34.8499 3.24558 34.8468L25.355 34.785C26.4169 34.785 27.2751 33.9156 27.272 32.8513L27.2442 21.859" stroke="#FF7A00" stroke-linecap="round" stroke-linejoin="round"/>
<path d="M30.7449 10.7151L27.6424 14.7649L20.2119 24.4671L20.8139 27.0474L23.2928 26.7194L27.6424 21.0392L33.7702 13.0416L30.7449 10.7151Z" stroke="#FF7A00" stroke-linecap="round" stroke-linejoin="round"/>
<path d="M5.78931 6.38989H18.8074" stroke="#FF7A00" stroke-linecap="round" stroke-linejoin="round"/>
<path d="M5.78931 10.3035H18.8074" stroke="#FF7A00" stroke-linecap="round" stroke-linejoin="round"/>
<path d="M5.78931 14.2173H13.2291" stroke="#FF7A00" stroke-linecap="round" stroke-linejoin="round"/>
</g>
<defs>
<clipPath id="clip0_2181_11437">
<rect width="35" height="36" fill="white"/>
</clipPath>
</defs>
</svg>
